<mxfile host="Electron" modified="2023-10-19T09:53:37.245Z" agent="Mozilla/5.0 (Windows NT 10.0; Win64; x64) AppleWebKit/537.36 (KHTML, like Gecko) draw.io/22.0.2 Chrome/114.0.5735.289 Electron/25.8.4 Safari/537.36" etag="JaRBnpKIbIvIgx4uNYLA" version="22.0.2" type="device">
  <diagram name="page-1" id="nTteX_-L-bd6lsjCAH_5">
    <mxGraphModel dx="863" dy="505" grid="1" gridSize="10" guides="1" tooltips="1" connect="1" arrows="1" fold="1" page="1" pageScale="1" pageWidth="827" pageHeight="1169" math="0" shadow="0">
      <root>
        <mxCell id="0" />
        <mxCell id="1" parent="0" />
        <mxCell id="nebLcPZcH7VbZwTWm6rH-4" style="edgeStyle=orthogonalEdgeStyle;rounded=0;orthogonalLoop=1;jettySize=auto;html=1;exitX=1;exitY=0.5;exitDx=0;exitDy=0;entryX=0;entryY=0.5;entryDx=0;entryDy=0;" edge="1" parent="1" source="0EIq4OgII-BHYrVc7AHv-1" target="z7vC7oLisWLh9jTTofFt-3">
          <mxGeometry relative="1" as="geometry" />
        </mxCell>
        <mxCell id="nebLcPZcH7VbZwTWm6rH-6" style="edgeStyle=orthogonalEdgeStyle;rounded=0;orthogonalLoop=1;jettySize=auto;html=1;exitX=1;exitY=0.5;exitDx=0;exitDy=0;entryX=0;entryY=0.5;entryDx=0;entryDy=0;" edge="1" parent="1" source="0EIq4OgII-BHYrVc7AHv-1" target="nebLcPZcH7VbZwTWm6rH-5">
          <mxGeometry relative="1" as="geometry">
            <Array as="points">
              <mxPoint x="170" y="50" />
              <mxPoint x="170" y="140" />
            </Array>
          </mxGeometry>
        </mxCell>
        <mxCell id="0EIq4OgII-BHYrVc7AHv-1" value="NodeEditor" style="rounded=0;whiteSpace=wrap;html=1;" parent="1" vertex="1">
          <mxGeometry x="20" y="20" width="120" height="60" as="geometry" />
        </mxCell>
        <mxCell id="z7vC7oLisWLh9jTTofFt-1" value="use" style="rounded=1;whiteSpace=wrap;html=1;arcSize=50;" parent="1" vertex="1">
          <mxGeometry x="180" y="35" width="40" height="30" as="geometry" />
        </mxCell>
        <mxCell id="z7vC7oLisWLh9jTTofFt-3" value="DataflowEngine" style="rounded=0;whiteSpace=wrap;html=1;" parent="1" vertex="1">
          <mxGeometry x="240" y="20" width="120" height="60" as="geometry" />
        </mxCell>
        <mxCell id="nebLcPZcH7VbZwTWm6rH-5" value="ControlFlowEngine" style="rounded=0;whiteSpace=wrap;html=1;" vertex="1" parent="1">
          <mxGeometry x="240" y="110" width="120" height="60" as="geometry" />
        </mxCell>
        <mxCell id="nebLcPZcH7VbZwTWm6rH-7" value="use" style="rounded=1;whiteSpace=wrap;html=1;arcSize=50;" vertex="1" parent="1">
          <mxGeometry x="180" y="125" width="40" height="30" as="geometry" />
        </mxCell>
      </root>
    </mxGraphModel>
  </diagram>
</mxfile>
